<svg width="70" height="48" viewBox="0 0 70 48" fill="none" xmlns="http://www.w3.org/2000/svg">
<path d="M13.482 8.37749C13.8669 8.49281 14.209 8.64884 14.5083 8.84556C14.8148 9.04229 15.0536 9.25936 15.2247 9.49679C15.3957 9.72743 15.5347 9.97842 15.6416 10.2498C15.7557 10.5211 15.8163 10.7925 15.8234 11.0638C15.8377 11.3351 15.8305 11.6031 15.802 11.8677C15.7236 12.4171 15.5062 12.953 15.1498 13.4754C14.8006 13.9909 14.3587 14.4386 13.8241 14.8185C13.2966 15.1984 12.6979 15.5206 12.0279 15.7852C11.3579 16.0498 10.6665 16.2058 9.95377 16.2533C9.24813 16.3075 8.53537 16.2634 7.81548 16.121C7.02431 15.9582 6.36856 15.6767 5.84824 15.2764C5.33505 14.8694 4.99649 14.4251 4.83255 13.9434C4.67574 13.455 4.66149 12.9496 4.78979 12.4273C4.92521 11.8982 5.20675 11.4267 5.63441 11.0129C5.64154 11.0061 5.64867 10.996 5.6558 10.9824C5.67005 10.9688 5.69856 10.9519 5.74133 10.9315C5.78409 10.9112 5.83042 10.9044 5.88032 10.9112C5.92308 10.918 5.94803 10.9315 5.95516 10.9519C5.96941 10.9654 5.96941 10.979 5.95516 10.9926L5.93377 11.0129C5.68431 11.2503 5.54532 11.4844 5.51681 11.715C5.45266 12.1627 5.60947 12.5901 5.98723 12.9971C6.365 13.3974 6.88532 13.7433 7.54819 14.035C8.21819 14.3267 8.99867 14.5709 9.88962 14.7677C11.3009 15.0797 12.4805 15.0627 13.4285 14.7168C14.3765 14.3708 14.9075 13.7535 15.0215 12.8648C15.1071 12.2272 14.9217 11.7015 14.4656 11.2877C14.0165 10.8671 13.2254 10.5347 12.0921 10.2905C11.9353 10.2566 11.1441 10.0734 9.71856 9.741C8.30016 9.40182 7.51611 9.21527 7.36643 9.18135L7.35574 9.17118C6.35787 8.94732 5.60947 8.57761 5.11053 8.06206C4.61872 7.5465 4.43697 6.94954 4.56527 6.27118C4.67218 5.55212 5.00362 4.86359 5.55957 4.20558C6.11553 3.54078 6.83899 2.9947 7.72994 2.56733C8.6209 2.13318 9.64016 1.89915 10.7877 1.86523C11.9424 1.83131 13.1719 2.08909 14.4763 2.63856L13.3644 6.19996C13.3572 6.24066 13.3358 6.26101 13.3002 6.26101L13.2467 6.21013C13.2467 6.20335 13.261 6.06428 13.2895 5.79294L13.3323 5.38592C13.3323 4.95856 13.2574 4.56171 13.1078 4.1954C12.9581 3.82909 12.7692 3.53061 12.5411 3.29996C12.3202 3.06932 12.1241 2.89295 11.9531 2.77084C11.782 2.64195 11.6252 2.54359 11.4827 2.47576C10.606 2.09587 9.81122 2.00769 9.09845 2.21119C8.38569 2.40792 7.79409 2.76067 7.32367 3.26944C6.86037 3.77821 6.58952 4.32429 6.51112 4.90768C6.49686 5.00943 6.48617 5.07727 6.47904 5.11119C6.47904 5.1451 6.47548 5.22312 6.46835 5.34522C6.46122 5.46054 6.46479 5.55212 6.47904 5.61996C6.4933 5.68101 6.51824 5.77598 6.55388 5.90487C6.58952 6.02697 6.63585 6.12873 6.69287 6.21013C6.75702 6.28475 6.84255 6.37633 6.94947 6.48487C7.05638 6.59341 7.17755 6.68837 7.31298 6.76978C7.45553 6.8444 7.63016 6.92241 7.83686 7.00381C8.04356 7.07843 8.27165 7.14288 8.52111 7.19715C8.59239 7.2175 9.0343 7.32264 9.84686 7.51258C10.6594 7.69574 11.4399 7.8789 12.1883 8.06206C12.9438 8.23843 13.375 8.34357 13.482 8.37749Z" fill="#00455A"/>
<path d="M23.1578 6.55609H18.7849V13.1905C18.7849 13.9095 18.9025 14.459 19.1378 14.8389C19.373 15.212 19.7044 15.385 20.1321 15.3578C20.5312 15.3239 20.8947 15.1679 21.2226 14.8898C21.5576 14.6116 21.889 14.1639 22.2169 13.5466C22.2597 13.472 22.306 13.455 22.3559 13.4957C22.3844 13.5296 22.388 13.567 22.3666 13.6077C21.9033 14.3878 21.3616 15.0458 20.7415 15.5817C20.1214 16.1176 19.4621 16.3855 18.7636 16.3855C18.0437 16.3855 17.5269 16.1549 17.2133 15.6936C16.9068 15.2323 16.7536 14.5167 16.7536 13.5466V6.55609H15.385C15.3779 6.55609 15.3708 6.54931 15.3637 6.53574C15.3565 6.52218 15.3565 6.50861 15.3637 6.49504C15.3637 6.47469 15.3708 6.45773 15.385 6.44417L18.6566 4.35821C18.7422 4.30394 18.7849 4.3175 18.7849 4.39891V6.33224H23.1578V6.55609Z" fill="#00455A"/>
<path d="M30.9518 2.2926H33.1757L33.1008 14.7778C33.0581 16.9689 32.3667 18.6614 31.0267 19.8554C30.1357 20.6626 29.1022 21.1273 27.9262 21.2494C26.9568 21.3511 26.1656 21.2053 25.5526 20.8118C24.9397 20.4048 24.7151 19.8554 24.8791 19.1634C25.0787 18.329 25.8449 17.437 27.1778 16.4873L27.2633 16.5585C26.4365 17.5421 26.1122 18.4885 26.2904 19.3975C26.4187 20.0351 26.7501 20.5066 27.2847 20.8118C27.8406 21.1307 28.4108 21.1578 28.9953 20.8932C29.7722 20.5473 30.321 19.7841 30.6418 18.6038C30.8485 17.8644 30.9412 16.9927 30.9198 15.9887V4.06312C30.8913 3.67645 30.8521 3.37119 30.8022 3.14733C30.7594 2.92347 30.6881 2.75728 30.5883 2.64874C30.4886 2.5402 30.3852 2.47576 30.2783 2.4554C30.1785 2.42827 30.0288 2.4147 29.8292 2.4147H29.0167C28.9739 2.4147 28.949 2.40453 28.9418 2.38418C28.9276 2.36383 28.9276 2.34348 28.9418 2.32312C28.9561 2.29599 28.981 2.28242 29.0167 2.28242L30.9518 2.2926Z" fill="#00455A"/>
<path d="M44.6797 9.88345C44.8722 10.7178 44.8294 11.576 44.5514 12.4578C44.2806 13.3329 43.7781 14.1198 43.0439 14.8185C42.3169 15.5105 41.4402 15.965 40.4138 16.182C38.9099 16.5009 37.5699 16.3177 36.3938 15.6326C35.2177 14.9474 34.4622 13.8858 34.1272 12.4477C33.9134 11.5251 33.9419 10.6229 34.2127 9.741C34.4907 8.85235 34.9968 8.07901 35.7309 7.421C36.4651 6.763 37.356 6.32206 38.4038 6.0982C39.9149 5.77937 41.2513 5.96592 42.4131 6.65785C43.5821 7.34299 44.3376 8.41819 44.6797 9.88345ZM40.7025 15.8971C41.6647 15.6936 42.2955 15.1272 42.5949 14.1978C42.9014 13.2617 42.8764 12.0847 42.52 10.667C42.3775 10.0497 42.1672 9.46287 41.8892 8.90661C41.6184 8.35036 41.2976 7.86194 40.927 7.44136C40.5635 7.01399 40.143 6.69855 39.6654 6.49504C39.1879 6.28475 38.6996 6.23387 38.2007 6.34241C36.2192 6.75621 35.5919 8.52334 36.319 11.6438C36.4615 12.2543 36.6682 12.8343 36.9391 13.3838C37.2099 13.9265 37.5307 14.4081 37.9013 14.8287C38.2719 15.2493 38.6996 15.5613 39.1843 15.7648C39.6761 15.9616 40.1822 16.0057 40.7025 15.8971Z" fill="#00455A"/>
<path d="M47.6306 0.00313089C47.7018 -0.0104363 47.7375 0.0200899 47.7375 0.0947096V16.0498H45.5885V2.10944L47.6306 0.00313089ZM52.0248 5.82347C52.8444 5.82347 53.4931 6.08124 53.9706 6.5968C54.4482 7.11235 54.6869 7.92299 54.6869 9.02872V16.0192H52.6021V9.51714C52.6021 8.39784 52.4667 7.60077 52.1958 7.12592C51.925 6.65107 51.4546 6.41364 50.7845 6.41364C50.1359 6.41364 49.5372 6.65446 48.9884 7.13609C48.4395 7.61773 48.0226 8.25539 47.7375 9.04907V7.8789C48.3576 7.24124 49.0418 6.73925 49.7902 6.37294C50.5386 6.00662 51.2835 5.82347 52.0248 5.82347Z" fill="#00455A"/>
<path d="M58.2579 6.0575V7.89925L58.2686 9.05925V16.0396H56.1196V8.08241L58.151 5.9761C58.2223 5.96253 58.2579 5.98966 58.2579 6.0575ZM62.5559 5.84382C63.3756 5.84382 64.0206 6.10159 64.491 6.61715C64.9686 7.1327 65.2074 7.94334 65.2074 9.04907V16.0192H63.1332L63.1225 9.53749C63.1225 8.4182 62.9871 7.62112 62.7162 7.14627C62.4454 6.67142 61.975 6.43399 61.305 6.43399C60.6564 6.43399 60.0576 6.67481 59.5088 7.15644C58.9671 7.63808 58.5537 8.27574 58.2686 9.06942V7.90942C58.8887 7.27177 59.5729 6.76978 60.3214 6.40346C61.0769 6.03037 61.8217 5.84382 62.5559 5.84382Z" fill="#00455A"/>
<path d="M11.5575 33.2712C11.5646 33.2305 11.586 33.2033 11.6216 33.1898C11.6644 33.1762 11.7036 33.1796 11.7392 33.2C11.7749 33.2135 11.7891 33.244 11.782 33.2915L11.333 38.4098H1.98862V26.4435C1.96011 26.05 1.9209 25.7414 1.87101 25.5175C1.82824 25.2937 1.75697 25.1308 1.65718 25.0291C1.55739 24.9206 1.45404 24.8527 1.34713 24.8256C1.24734 24.7985 1.09766 24.7849 0.898085 24.7849H0.0855319C0.0427659 24.7849 0.0178191 24.7747 0.0106915 24.7544C-0.00356383 24.7272 -0.00356383 24.7035 0.0106915 24.6831C0.0249468 24.656 0.0498936 24.6424 0.0855319 24.6424L4.34074 24.7035V38.1859C4.80404 38.1859 5.36356 38.1893 6.0193 38.1961C6.68218 38.1961 7.035 38.1961 7.07776 38.1961C7.80478 38.1961 8.50686 37.9315 9.18398 37.4024C9.86111 36.8665 10.4028 36.2254 10.8091 35.4792C11.2225 34.7263 11.472 33.9936 11.5575 33.2814V33.2712Z" fill="#00455A"/>
<path d="M22.9974 33.1389C23.0401 33.0304 23.0829 32.9897 23.1257 33.0168C23.1684 33.0371 23.172 33.0914 23.1364 33.1796C22.8014 34.1157 22.3523 34.9942 21.7892 35.815C21.2262 36.6291 20.5918 37.2769 19.8862 37.7585C18.9382 38.3826 17.9367 38.6947 16.8819 38.6947C15.3993 38.6947 14.209 38.2571 13.3109 37.382C12.4199 36.5002 11.9745 35.3571 11.9745 33.9529C11.9745 33.2474 12.1313 32.5555 12.4449 31.8771C12.7656 31.192 13.1826 30.6018 13.6958 30.1066C14.2161 29.6046 14.822 29.201 15.5133 28.8958C16.2047 28.5905 16.9068 28.4379 17.6196 28.4379C19.2447 28.4379 20.2889 28.8991 20.7522 29.8217C20.8163 29.9574 20.8626 30.0795 20.8912 30.188C20.8912 30.2016 20.8912 30.2186 20.8912 30.2389C20.8983 30.2593 20.9054 30.2762 20.9125 30.2898C20.9197 30.3169 20.9232 30.3542 20.9232 30.4017C20.9803 30.7138 20.966 30.9885 20.8805 31.2259C20.8021 31.4566 20.6809 31.6397 20.517 31.7754C20.3601 31.9111 20.1356 32.0298 19.8434 32.1315C19.5583 32.2333 19.2803 32.3113 19.0095 32.3656C18.7457 32.4198 18.4179 32.4775 18.0258 32.5386C18.0187 32.5386 18.0116 32.5386 18.0045 32.5386C16.7144 32.7421 15.2746 32.8201 13.6851 32.7726V32.915C13.6851 34.1564 14.1163 35.1774 14.9788 35.9778C15.8412 36.7783 16.9246 37.1785 18.229 37.1785C20.4029 37.1785 21.9924 35.832 22.9974 33.1389ZM13.6958 32.5691V32.5793C14.1306 32.62 14.7542 32.62 15.5668 32.5793C16.3794 32.5318 17.1634 32.4504 17.9189 32.335C18.1898 32.2943 18.4072 32.1926 18.5711 32.0298C18.7422 31.867 18.8526 31.6872 18.9025 31.4905C18.9524 31.287 18.9809 31.0869 18.9881 30.8901C19.0023 30.6866 18.9952 30.5204 18.9667 30.3915L18.9346 30.188C18.842 29.8081 18.6246 29.4859 18.2824 29.2214C17.9474 28.95 17.5091 28.8143 16.9674 28.8143C16.1762 28.8143 15.5027 29.0484 14.9467 29.5165C14.3907 29.9845 14.0165 30.6595 13.8241 31.5414L13.8027 31.694C13.7956 31.7076 13.7884 31.7313 13.7813 31.7652C13.7742 31.7924 13.7706 31.8127 13.7706 31.8263C13.7635 31.8805 13.7564 31.9382 13.7492 31.9993C13.7421 32.0603 13.735 32.1281 13.7279 32.2028C13.7207 32.2774 13.7136 32.335 13.7065 32.3757C13.7065 32.3961 13.7029 32.4266 13.6958 32.4673C13.6958 32.508 13.6958 32.5419 13.6958 32.5691Z" fill="#00455A"/>
<path d="M29.4978 28.9772H25.125V35.6115C25.125 36.3306 25.2426 36.8801 25.4778 37.2599C25.713 37.633 26.0445 37.806 26.4721 37.7789C26.8713 37.745 27.2348 37.5889 27.5626 37.3108C27.8976 37.0327 28.2291 36.585 28.557 35.9677C28.5997 35.893 28.646 35.8761 28.6959 35.9168C28.7245 35.9507 28.728 35.988 28.7066 36.0287C28.2433 36.8088 27.7016 37.4668 27.0815 38.0027C26.4614 38.5387 25.8021 38.8066 25.1036 38.8066C24.3837 38.8066 23.867 38.576 23.5533 38.1147C23.2469 37.6534 23.0936 36.9377 23.0936 35.9677V28.9772H21.7251C21.718 28.9772 21.7108 28.9704 21.7037 28.9568C21.6966 28.9432 21.6966 28.9297 21.7037 28.9161C21.7037 28.8958 21.7108 28.8788 21.7251 28.8652L24.9967 26.7793C25.0822 26.725 25.125 26.7386 25.125 26.82V28.7533H29.4978V28.9772Z" fill="#00455A"/>
<path d="M36.3617 28.9772H31.9889V35.6115C31.9889 36.3306 32.1065 36.8801 32.3417 37.2599C32.577 37.633 32.9084 37.806 33.336 37.7789C33.7352 37.745 34.0987 37.5889 34.4266 37.3108C34.7616 37.0327 35.093 36.585 35.4209 35.9677C35.4636 35.893 35.51 35.8761 35.5599 35.9168C35.5884 35.9507 35.5919 35.988 35.5706 36.0287C35.1073 36.8088 34.5656 37.4668 33.9455 38.0027C33.3254 38.5387 32.666 38.8066 31.9675 38.8066C31.2476 38.8066 30.7309 38.576 30.4173 38.1147C30.1108 37.6534 29.9575 36.9377 29.9575 35.9677V28.9772H28.589C28.5819 28.9772 28.5748 28.9704 28.5676 28.9568C28.5605 28.9432 28.5605 28.9297 28.5676 28.9161C28.5676 28.8958 28.5748 28.8788 28.589 28.8652L31.8606 26.7793C31.9461 26.725 31.9889 26.7386 31.9889 26.82V28.7533H36.3617V28.9772Z" fill="#00455A"/>
<path d="M37.5592 28.5193L36.6504 26.0568C36.5506 25.7719 36.5863 25.5073 36.7573 25.2631C36.9355 25.0121 37.1743 24.8866 37.4736 24.8866C37.7588 24.8866 37.9868 25.0054 38.1579 25.2428C38.329 25.4734 38.3753 25.7278 38.2969 26.0059L37.5592 28.5193ZM38.5428 28.4989V38.4403H36.3938V30.5136L38.4252 28.4073C38.5036 28.3938 38.5428 28.4243 38.5428 28.4989Z" fill="#00455A"/>
<path d="M42.4666 28.4786V30.3203L42.4773 31.4803V38.4606H40.3283V30.5035L42.3597 28.3972C42.4309 28.3836 42.4666 28.4107 42.4666 28.4786ZM46.7645 28.2649C47.5842 28.2649 48.2293 28.5227 48.6997 29.0382C49.1773 29.5538 49.416 30.3644 49.416 31.4701V38.4403H47.3419L47.3312 31.9586C47.3312 30.8393 47.1958 30.0422 46.9249 29.5673C46.6541 29.0925 46.1836 28.8551 45.5136 28.8551C44.865 28.8551 44.2663 29.0959 43.7175 29.5775C43.1758 30.0591 42.7624 30.6968 42.4773 31.4905V30.3305C43.0974 29.6928 43.7816 29.1908 44.53 28.8245C45.2856 28.4514 46.0304 28.2649 46.7645 28.2649Z" fill="#00455A"/>
<path d="M60.2572 32.8133C60.2572 32.8404 60.2572 32.8777 60.2572 32.9252C60.2643 32.9727 60.2679 33.01 60.2679 33.0371L60.2572 33.8207V34.6347V34.6245L60.2465 34.828C60.2394 35.4114 60.2358 36.0389 60.2358 36.7105C60.2429 37.3753 60.2429 38.074 60.2358 38.8066C60.2358 39.546 60.2287 40.2278 60.2144 40.8519C60.2002 41.4827 60.1681 42.0492 60.1182 42.5512C60.0683 43.0599 60.0006 43.4161 59.9151 43.6196C59.687 44.2233 59.2166 44.7897 58.5038 45.3189C57.7982 45.8548 57.0355 46.2821 56.2158 46.601C55.3961 46.9266 54.5872 47.1572 53.7889 47.2929C51.2443 47.7203 49.6441 47.4862 48.9884 46.5908C48.7033 46.1634 48.6106 45.7361 48.7104 45.3087C48.8743 44.5014 49.7225 43.4941 51.255 42.2866C51.8252 41.8253 52.2386 41.4861 52.4952 41.2691C52.7589 41.0588 53.1687 40.6992 53.7247 40.1905C54.2878 39.6885 54.7689 39.2272 55.1681 38.8066L56.0554 37.8908C56.0412 37.8976 56.0162 37.9112 55.9806 37.9315C55.9521 37.9519 55.9307 37.9688 55.9165 37.9824C55.2536 38.3623 54.5765 38.5522 53.8851 38.5522C52.8943 38.5522 52.0782 38.2605 51.4367 37.6771C50.7952 37.087 50.4816 36.2356 50.4959 35.1231C50.4887 34.2684 50.6776 33.417 51.0625 32.5691C51.4474 31.7211 51.9606 30.9817 52.6021 30.3508C53.2436 29.7132 54.0134 29.2146 54.9115 28.8551C55.8167 28.4887 56.7433 28.3463 57.6912 28.4277C58.2401 28.4752 58.7141 28.716 59.1132 29.1501L60.0648 28.4379H60.2572V32.8133ZM58.3327 35.6726V35.347C58.2686 35.4759 58.1973 35.6013 58.1189 35.7234C57.9478 36.0084 57.7839 36.2492 57.6271 36.4459C57.4204 36.7105 57.1852 36.9682 56.9215 37.2192V37.2294L55.6064 38.6743C55.2857 39.0203 54.8544 39.468 54.3127 40.0175C53.7782 40.5737 53.3327 41.0452 52.9763 41.4319C52.6199 41.8253 52.3277 42.1882 52.0996 42.5206C51.5151 43.3143 51.1516 44.0198 51.0091 44.6371C50.895 45.1662 50.9877 45.6445 51.287 46.0718C51.9 46.9469 52.9727 47.2454 54.5052 46.9673C55.1966 46.8452 55.8238 46.5399 56.3869 46.0515C56.95 45.5631 57.4061 44.9152 57.7554 44.108C57.8338 43.9113 57.9015 43.606 57.9585 43.1922C58.0227 42.7852 58.0726 42.2459 58.1082 41.5743C58.151 40.9095 58.1795 40.316 58.1937 39.7936C58.2151 39.2713 58.2401 38.5556 58.2686 37.6466C58.2971 36.7308 58.3185 36.0728 58.3327 35.6726ZM58.3327 35.0417V31.9178C58.3327 30.7646 58.1795 29.9438 57.873 29.4554C57.5665 28.9602 57.0391 28.7126 56.2907 28.7126C55.25 28.7126 54.3484 29.1942 53.5857 30.1575C52.8302 31.1208 52.4524 32.2842 52.4524 33.6477C52.4524 34.8891 52.7019 35.8184 53.2008 36.4357C53.6998 37.053 54.3911 37.3617 55.275 37.3617C55.8808 37.3617 56.4546 37.1548 56.9963 36.741C57.538 36.3272 57.9835 35.7608 58.3327 35.0417Z" fill="#00455A"/>
<path d="M68.201 32.9049C68.5716 33.0066 68.8888 33.166 69.1525 33.3831C69.4234 33.6002 69.6123 33.8342 69.7192 34.0852C69.8332 34.3362 69.9152 34.6008 69.9651 34.8789C70.015 35.157 70.0114 35.4114 69.9544 35.642C69.8475 36.3068 69.4733 36.914 68.8318 37.4634C68.1903 38.0061 67.3991 38.3962 66.4583 38.6336C65.5174 38.8778 64.6015 38.905 63.7106 38.715C63.1902 38.6201 62.7448 38.4606 62.3741 38.2368C62.0035 38.0061 61.7291 37.7517 61.5509 37.4736C61.3798 37.1955 61.2872 36.897 61.2729 36.5782C61.2658 36.2594 61.337 35.9575 61.4867 35.6726C61.6435 35.3809 61.8894 35.1129 62.2244 34.8687C62.5594 34.6177 62.9586 34.4278 63.4219 34.2989L63.4646 34.4312C63.1867 34.5465 62.9871 34.6991 62.8659 34.8891C62.7448 35.079 62.6628 35.313 62.62 35.5912C62.5416 36.0999 62.7234 36.5341 63.1653 36.8936C63.6072 37.2532 64.3307 37.5347 65.3357 37.7382C66.4404 37.962 67.3599 37.9519 68.0941 37.7077C68.8353 37.4567 69.2523 37.0089 69.345 36.3645C69.4091 35.9371 69.263 35.6183 68.9066 35.408C68.5502 35.1909 67.8945 34.9874 66.9394 34.7975C64.5374 34.2752 63.3043 34.0072 63.2401 33.9936L63.2294 33.9835C62.4882 33.8274 61.9322 33.5222 61.5616 33.0677C61.1981 32.6132 61.0698 32.1281 61.1767 31.6126C61.2907 30.9071 61.7077 30.2626 62.4276 29.6793C63.1475 29.0891 64.0634 28.699 65.1753 28.5091C66.2943 28.3124 67.5417 28.4718 68.9173 28.9873L68.7249 32.5487V32.5589C68.7249 32.5657 68.7177 32.5725 68.7035 32.5793C68.6963 32.586 68.6785 32.5894 68.65 32.5894C68.6215 32.5894 68.6001 32.586 68.5859 32.5793C68.5716 32.5725 68.5645 32.5623 68.5645 32.5487V32.5386C68.5645 32.274 68.5182 31.9755 68.4255 31.6431C68.3328 31.3039 68.1974 30.958 68.0192 30.6052C67.841 30.2525 67.5916 29.9303 67.2708 29.6386C66.9501 29.3401 66.5901 29.1264 66.191 28.9975C65.2074 28.6922 64.4019 28.7194 63.7747 29.0789C63.1546 29.4317 62.7946 29.9472 62.6949 30.6256C62.6806 30.7409 62.6699 30.8291 62.6628 30.8901C62.6628 30.9444 62.6842 31.0394 62.7269 31.175C62.7697 31.3039 62.841 31.4125 62.9408 31.5007C63.0477 31.5888 63.2187 31.6872 63.454 31.7957C63.6892 31.8975 63.9778 31.9823 64.32 32.0501C66.7291 32.5657 68.0228 32.8506 68.201 32.9049Z" fill="#00455A"/>
</svg>
